<svg width="201" height="195" viewBox="0 0 201 195" fill="none" xmlns="http://www.w3.org/2000/svg">
<g opacity="0.4">
<path d="M100.842 189.306C149.068 189.306 188.162 150.212 188.162 101.986C188.162 53.7611 149.068 14.6667 100.842 14.6667C52.6169 14.6667 13.5225 53.7611 13.5225 101.986C13.5225 150.212 52.6169 189.306 100.842 189.306Z" fill="url(#paint0_linear_182_338)"/>
<path d="M147.951 34.9856H51.2188C45.1894 34.9856 40.3015 39.8734 40.3015 45.9028H158.868C158.868 39.8734 153.98 34.9856 147.951 34.9856Z" fill="#6F91EE"/>
<path d="M40.3015 45.6045H158.868V135.907C158.868 139.922 157.273 143.772 154.434 146.611C151.595 149.45 147.745 151.045 143.73 151.045H55.4397C51.4248 151.045 47.5744 149.45 44.7354 146.611C41.8964 143.772 40.3015 139.922 40.3015 135.907V45.6045Z" fill="url(#paint1_linear_182_338)"/>
<path d="M138.487 57.0105H60.7208C59.1012 57.0105 57.7883 58.322 57.7883 59.9398C57.7883 61.5575 59.1012 62.869 60.7208 62.869H138.487C140.107 62.869 141.42 61.5575 141.42 59.9398C141.42 58.322 140.107 57.0105 138.487 57.0105Z" fill="#6F91EE"/>
<path d="M138.487 81.901H60.7208C59.1012 81.901 57.7883 83.2125 57.7883 84.8303C57.7883 86.4481 59.1012 87.7595 60.7208 87.7595H138.487C140.107 87.7595 141.42 86.4481 141.42 84.8303C141.42 83.2125 140.107 81.901 138.487 81.901Z" fill="#6F91EE"/>
<path d="M138.487 106.792H60.7208C59.1012 106.792 57.7883 108.103 57.7883 109.721C57.7883 111.339 59.1012 112.65 60.7208 112.65H138.487C140.107 112.65 141.42 111.339 141.42 109.721C141.42 108.103 140.107 106.792 138.487 106.792Z" fill="#6F91EE"/>
<path d="M138.487 131.682H60.7208C59.1013 131.682 57.7884 132.993 57.7884 134.611C57.7884 136.229 59.1013 137.54 60.7208 137.54H138.487C140.107 137.54 141.42 136.229 141.42 134.611C141.42 132.993 140.107 131.682 138.487 131.682Z" fill="#6F91EE"/>
<g filter="url(#filter0_d_182_338)">
<path d="M60.1941 101.453H18.7847C15.458 101.453 12.7612 104.15 12.7612 107.476V166.664C12.7612 169.991 15.458 172.688 18.7847 172.688H60.1941C63.5208 172.688 66.2176 169.991 66.2176 166.664V107.476C66.2176 104.15 63.5208 101.453 60.1941 101.453Z" fill="url(#paint2_linear_182_338)"/>
</g>
<g filter="url(#filter1_d_182_338)">
<path d="M178.073 9H132.335C130.204 9 128.476 10.7278 128.476 12.8591V34.3572C128.476 36.4885 130.204 38.2163 132.335 38.2163H178.073C180.205 38.2163 181.932 36.4885 181.932 34.3572V12.8591C181.932 10.7278 180.205 9 178.073 9Z" fill="url(#paint3_linear_182_338)"/>
</g>
<path d="M55.5733 131.063H23.4055C22.3223 131.063 21.4442 131.941 21.4442 133.024V133.03C21.4442 134.113 22.3223 134.992 23.4055 134.992H55.5733C56.6565 134.992 57.5346 134.113 57.5346 133.03V133.024C57.5346 131.941 56.6565 131.063 55.5733 131.063Z" fill="#6F91EE"/>
<path d="M55.5916 158.709H23.7002C22.6263 158.709 21.7558 159.559 21.7558 160.609V160.615C21.7558 161.664 22.6263 162.515 23.7002 162.515H55.5916C56.6654 162.515 57.536 161.664 57.536 160.615V160.609C57.536 159.559 56.6654 158.709 55.5916 158.709Z" fill="#6F91EE"/>
<path d="M55.5916 144.244H23.7002C22.6263 144.244 21.7558 145.095 21.7558 146.144V146.15C21.7558 147.2 22.6263 148.051 23.7002 148.051H55.5916C56.6654 148.051 57.536 147.2 57.536 146.15V146.144C57.536 145.095 56.6654 144.244 55.5916 144.244Z" fill="#6F91EE"/>
<path d="M35.1671 110.593H25.7668C23.6846 110.593 21.9966 112.281 21.9966 114.363V116.972C21.9966 119.054 23.6846 120.742 25.7668 120.742H35.1671C37.2494 120.742 38.9374 119.054 38.9374 116.972V114.363C38.9374 112.281 37.2494 110.593 35.1671 110.593Z" fill="#6F91EE"/>
<path d="M139.764 28.0417C142.215 28.0417 144.201 26.0553 144.201 23.605C144.201 21.1547 142.215 19.1683 139.764 19.1683C137.314 19.1683 135.328 21.1547 135.328 23.605C135.328 26.0553 137.314 28.0417 139.764 28.0417Z" fill="#6F91EE"/>
<path d="M155.62 28.0417C158.07 28.0417 160.056 26.0553 160.056 23.605C160.056 21.1547 158.07 19.1683 155.62 19.1683C153.169 19.1683 151.183 21.1547 151.183 23.605C151.183 26.0553 153.169 28.0417 155.62 28.0417Z" fill="#6F91EE"/>
<path d="M171.475 28.0417C173.925 28.0417 175.912 26.0553 175.912 23.605C175.912 21.1547 173.925 19.1683 171.475 19.1683C169.025 19.1683 167.038 21.1547 167.038 23.605C167.038 26.0553 169.025 28.0417 171.475 28.0417Z" fill="#6F91EE"/>
<path d="M159.445 133.863L148.209 146.251L179.882 174.98L191.118 162.592L159.445 133.863Z" fill="#6F91EE"/>
<path fill-rule="evenodd" clip-rule="evenodd" d="M171.32 113.359C171.32 139.275 150.311 160.284 124.395 160.284C98.4792 160.284 77.4701 139.275 77.4701 113.359C77.4701 87.4429 98.4792 66.4338 124.395 66.4338C150.311 66.4338 171.32 87.4429 171.32 113.359ZM164.122 113.359C164.122 135.3 146.336 153.086 124.395 153.086C102.454 153.086 84.6677 135.3 84.6677 113.359C84.6677 91.4182 102.454 73.6316 124.395 73.6316C146.336 73.6316 164.122 91.4182 164.122 113.359Z" fill="#6F91EE"/>
<g filter="url(#filter2_b_182_338)">
<path d="M124.395 153.086C146.336 153.086 164.123 135.3 164.123 113.359C164.123 91.4181 146.336 73.6316 124.395 73.6316C102.455 73.6316 84.6681 91.4181 84.6681 113.359C84.6681 135.3 102.455 153.086 124.395 153.086Z" fill="url(#paint4_linear_182_338)" fill-opacity="0.2"/>
</g>
<path d="M133.942 113.359L145.303 101.972C146.368 100.846 146.951 99.3484 146.929 97.7987C146.907 96.249 146.281 94.769 145.186 93.6731C144.09 92.5772 142.61 91.9519 141.06 91.9299C139.51 91.908 138.013 92.4912 136.887 93.5556L125.5 104.943L114.138 93.5556C113.591 92.977 112.934 92.5139 112.205 92.1937C111.477 91.8735 110.691 91.7027 109.895 91.6914C109.099 91.6801 108.309 91.8286 107.571 92.128C106.834 92.4274 106.164 92.8717 105.601 93.4346C105.038 93.9975 104.594 94.6676 104.294 95.4052C103.995 96.1427 103.846 96.9329 103.858 97.7289C103.869 98.5248 104.04 99.3105 104.36 100.039C104.68 100.768 105.143 101.425 105.722 101.972L117.102 113.359L105.722 124.746C105.143 125.293 104.68 125.95 104.36 126.679C104.04 127.407 103.869 128.193 103.858 128.989C103.846 129.785 103.995 130.575 104.294 131.313C104.594 132.05 105.038 132.72 105.601 133.283C106.164 133.846 106.834 134.29 107.571 134.59C108.309 134.889 109.099 135.038 109.895 135.026C110.691 135.015 111.477 134.844 112.205 134.524C112.934 134.204 113.591 133.741 114.138 133.162L125.525 121.775L136.912 133.162C138.049 134.164 139.526 134.694 141.04 134.645C142.555 134.596 143.994 133.971 145.064 132.898C146.133 131.825 146.754 130.384 146.798 128.869C146.843 127.355 146.308 125.88 145.303 124.746L133.942 113.359Z" fill="#F4C967"/>
<g filter="url(#filter3_f_182_338)">
<ellipse cx="125.709" cy="135.301" rx="27.9278" ry="4.1257" fill="#F4C967"/>
</g>
<path d="M92.9452 164.726C93.4628 162.582 96.5124 162.582 97.03 164.726L97.7966 167.902C97.9815 168.668 98.5797 169.266 99.3459 169.451L102.522 170.218C104.666 170.735 104.666 173.785 102.522 174.302L99.3459 175.069C98.5797 175.254 97.9815 175.852 97.7966 176.618L97.03 179.794C96.5124 181.938 93.4628 181.938 92.9452 179.794L92.1786 176.618C91.9936 175.852 91.3954 175.254 90.6292 175.069L87.4535 174.302C85.3095 173.785 85.3095 170.735 87.4535 170.218L90.6292 169.451C91.3954 169.266 91.9936 168.668 92.1786 167.902L92.9452 164.726Z" fill="#6F91EE"/>
<path d="M29.7588 18.5597C30.2763 16.4157 33.326 16.4157 33.8435 18.5597L34.6101 21.7355C34.7951 22.5017 35.3933 23.0999 36.1595 23.2848L39.3352 24.0514C41.4793 24.569 41.4793 27.6186 39.3352 28.1362L36.1595 28.9028C35.3933 29.0877 34.7951 29.686 34.6101 30.4521L33.8435 33.6279C33.326 35.7719 30.2763 35.7719 29.7588 33.6279L28.9922 30.4521C28.8072 29.686 28.209 29.0877 27.4428 28.9028L24.2671 28.1362C22.123 27.6186 22.123 24.569 24.2671 24.0514L27.4428 23.2848C28.209 23.0999 28.8072 22.5017 28.9922 21.7355L29.7588 18.5597Z" fill="#6F91EE"/>
<path fill-rule="evenodd" clip-rule="evenodd" d="M97.3609 17.43C98.8332 17.43 100.027 16.2364 100.027 14.7642C100.027 13.2919 98.8332 12.0984 97.3609 12.0984C95.8886 12.0984 94.6951 13.2919 94.6951 14.7642C94.6951 16.2364 95.8886 17.43 97.3609 17.43ZM97.3609 19.4293C99.9374 19.4293 102.026 17.3406 102.026 14.7642C102.026 12.1877 99.9374 10.099 97.3609 10.099C94.7844 10.099 92.6958 12.1877 92.6958 14.7642C92.6958 17.3406 94.7844 19.4293 97.3609 19.4293Z" fill="#6F91EE"/>
<path d="M180.433 91.5368C180.1 90.2308 181.306 89.0541 182.603 89.4187L187.877 90.9007C189.175 91.2654 189.591 92.8979 188.626 93.8393L184.706 97.6655C183.741 98.6069 182.119 98.1511 181.786 96.8451L180.433 91.5368Z" fill="#6F91EE"/>
<path d="M23.2601 79.5675C24.5666 79.2362 25.7417 80.4434 25.3754 81.7405L23.8866 87.0124C23.5203 88.3095 21.8872 88.7236 20.947 87.7579L17.1259 83.8325C16.1857 82.8668 16.6436 81.2454 17.9501 80.9141L23.2601 79.5675Z" fill="#6F91EE"/>
<path d="M150.394 171.683C151.701 171.351 152.876 172.559 152.51 173.856L151.021 179.128C150.654 180.425 149.021 180.839 148.081 179.873L144.26 175.948C143.32 174.982 143.778 173.361 145.084 173.029L150.394 171.683Z" fill="#6F91EE"/>
<path fill-rule="evenodd" clip-rule="evenodd" d="M186.431 56.2553C187.903 56.2553 189.097 55.0618 189.097 53.5895C189.097 52.1172 187.903 50.9237 186.431 50.9237C184.959 50.9237 183.765 52.1172 183.765 53.5895C183.765 55.0618 184.959 56.2553 186.431 56.2553ZM186.431 58.2547C189.007 58.2547 191.096 56.166 191.096 53.5895C191.096 51.013 189.007 48.9244 186.431 48.9244C183.854 48.9244 181.766 51.013 181.766 53.5895C181.766 56.166 183.854 58.2547 186.431 58.2547Z" fill="#6F91EE"/>
<path d="M179.879 174.981L191.116 162.593L192.808 164.128C194.45 165.618 195.434 167.699 195.542 169.913C195.649 172.128 194.873 174.294 193.384 175.936C191.894 177.578 189.813 178.562 187.599 178.67C185.385 178.777 183.218 178.001 181.576 176.512L179.883 174.977L179.879 174.981Z" fill="#6F91EE"/>
</g>
<defs>
<filter id="filter0_d_182_338" x="0.761211" y="93.4528" width="83.4564" height="101.235" filterUnits="userSpaceOnUse" color-interpolation-filters="sRGB">
<feFlood flood-opacity="0" result="BackgroundImageFix"/>
<feColorMatrix in="SourceAlpha" type="matrix" values="0 0 0 0 0 0 0 0 0 0 0 0 0 0 0 0 0 0 127 0" result="hardAlpha"/>
<feOffset dx="3" dy="7"/>
<feGaussianBlur stdDeviation="7.5"/>
<feComposite in2="hardAlpha" operator="out"/>
<feColorMatrix type="matrix" values="0 0 0 0 0.104618 0 0 0 0 0.465612 0 0 0 0 0.545833 0 0 0 0.15 0"/>
<feBlend mode="normal" in2="BackgroundImageFix" result="effect1_dropShadow_182_338"/>
<feBlend mode="normal" in="SourceGraphic" in2="effect1_dropShadow_182_338" result="shape"/>
</filter>
<filter id="filter1_d_182_338" x="121.476" y="0" width="79.4564" height="55.2163" filterUnits="userSpaceOnUse" color-interpolation-filters="sRGB">
<feFlood flood-opacity="0" result="BackgroundImageFix"/>
<feColorMatrix in="SourceAlpha" type="matrix" values="0 0 0 0 0 0 0 0 0 0 0 0 0 0 0 0 0 0 127 0" result="hardAlpha"/>
<feOffset dx="6" dy="4"/>
<feGaussianBlur stdDeviation="6.5"/>
<feComposite in2="hardAlpha" operator="out"/>
<feColorMatrix type="matrix" values="0 0 0 0 0.104618 0 0 0 0 0.465612 0 0 0 0 0.545833 0 0 0 0.09 0"/>
<feBlend mode="normal" in2="BackgroundImageFix" result="effect1_dropShadow_182_338"/>
<feBlend mode="normal" in="SourceGraphic" in2="effect1_dropShadow_182_338" result="shape"/>
</filter>
<filter id="filter2_b_182_338" x="67.993" y="56.9565" width="112.805" height="112.805" filterUnits="userSpaceOnUse" color-interpolation-filters="sRGB">
<feFlood flood-opacity="0" result="BackgroundImageFix"/>
<feGaussianBlur in="BackgroundImageFix" stdDeviation="8.33757"/>
<feComposite in2="SourceAlpha" operator="in" result="effect1_backgroundBlur_182_338"/>
<feBlend mode="normal" in="SourceGraphic" in2="effect1_backgroundBlur_182_338" result="shape"/>
</filter>
<filter id="filter3_f_182_338" x="76.9373" y="110.332" width="97.5435" height="49.9393" filterUnits="userSpaceOnUse" color-interpolation-filters="sRGB">
<feFlood flood-opacity="0" result="BackgroundImageFix"/>
<feBlend mode="normal" in="SourceGraphic" in2="BackgroundImageFix" result="shape"/>
<feGaussianBlur stdDeviation="10.422" result="effect1_foregroundBlur_182_338"/>
</filter>
<linearGradient id="paint0_linear_182_338" x1="100.169" y1="-13.7668" x2="101.958" y2="292.887" gradientUnits="userSpaceOnUse">
<stop stop-color="white" stop-opacity="0"/>
<stop offset="1" stop-color="#6F91EE"/>
</linearGradient>
<linearGradient id="paint1_linear_182_338" x1="36.7415" y1="124.672" x2="208.03" y2="127.717" gradientUnits="userSpaceOnUse">
<stop stop-color="white"/>
<stop offset="1" stop-color="#6F91EE"/>
</linearGradient>
<linearGradient id="paint2_linear_182_338" x1="11.1561" y1="154.87" x2="113.614" y2="163.285" gradientUnits="userSpaceOnUse">
<stop stop-color="white"/>
<stop offset="1" stop-color="#6F91EE"/>
</linearGradient>
<linearGradient id="paint3_linear_182_338" x1="126.871" y1="30.9087" x2="204.057" y2="33.1414" gradientUnits="userSpaceOnUse">
<stop stop-color="white"/>
<stop offset="1" stop-color="#6F91EE"/>
</linearGradient>
<linearGradient id="paint4_linear_182_338" x1="124.395" y1="73.6316" x2="164.428" y2="177.51" gradientUnits="userSpaceOnUse">
<stop stop-color="white"/>
<stop offset="1" stop-color="#6F91EE"/>
</linearGradient>
</defs>
</svg>
