<svg width="122" height="30" viewBox="0 0 122 30" fill="none" xmlns="http://www.w3.org/2000/svg">
<path d="M46.1786 23.096C44.9786 23.096 43.9066 22.808 42.9626 22.232C42.0186 21.656 41.2746 20.864 40.7306 19.856C40.1866 18.848 39.9146 17.712 39.9146 16.448C39.9146 15.168 40.2026 14.032 40.7786 13.04C41.3706 12.032 42.1626 11.24 43.1546 10.664C44.1626 10.072 45.2906 9.776 46.5386 9.776C47.8026 9.776 48.9306 10.072 49.9226 10.664C50.9146 11.24 51.6986 12.032 52.2746 13.04C52.8666 14.048 53.1706 15.184 53.1866 16.448L52.3226 16.664C52.3226 17.88 52.0506 18.976 51.5066 19.952C50.9626 20.928 50.2266 21.696 49.2986 22.256C48.3866 22.816 47.3466 23.096 46.1786 23.096ZM46.5386 21.128C47.4026 21.128 48.1706 20.928 48.8426 20.528C49.5146 20.112 50.0426 19.552 50.4266 18.848C50.8266 18.128 51.0266 17.328 51.0266 16.448C51.0266 15.552 50.8266 14.752 50.4266 14.048C50.0426 13.328 49.5146 12.768 48.8426 12.368C48.1706 11.952 47.4026 11.744 46.5386 11.744C45.7066 11.744 44.9466 11.952 44.2586 12.368C43.5706 12.768 43.0266 13.328 42.6266 14.048C42.2426 14.752 42.0506 15.552 42.0506 16.448C42.0506 17.328 42.2426 18.128 42.6266 18.848C43.0266 19.552 43.5706 20.112 44.2586 20.528C44.9466 20.928 45.7066 21.128 46.5386 21.128ZM52.0586 23.024C51.7386 23.024 51.4746 22.92 51.2666 22.712C51.0586 22.504 50.9546 22.24 50.9546 21.92V18.08L51.4106 15.776L53.1866 16.448V21.92C53.1866 22.24 53.0746 22.504 52.8506 22.712C52.6426 22.92 52.3786 23.024 52.0586 23.024ZM62.2773 23.096C61.0293 23.096 59.9013 22.808 58.8933 22.232C57.9013 21.64 57.1093 20.84 56.5173 19.832C55.9413 18.824 55.6533 17.688 55.6533 16.424C55.6533 15.16 55.9253 14.032 56.4693 13.04C57.0133 12.032 57.7573 11.24 58.7013 10.664C59.6453 10.072 60.7173 9.776 61.9173 9.776C62.9093 9.776 63.8133 9.984 64.6293 10.4C65.4613 10.816 66.1493 11.376 66.6933 12.08V5.36C66.6933 5.024 66.7973 4.76 67.0053 4.568C67.2133 4.36 67.4773 4.256 67.7973 4.256C68.1333 4.256 68.4053 4.36 68.6133 4.568C68.8213 4.76 68.9253 5.024 68.9253 5.36V16.472C68.9093 17.72 68.6053 18.848 68.0133 19.856C67.4373 20.864 66.6453 21.656 65.6373 22.232C64.6453 22.808 63.5253 23.096 62.2773 23.096ZM62.2773 21.128C63.1413 21.128 63.9093 20.928 64.5813 20.528C65.2533 20.112 65.7813 19.552 66.1653 18.848C66.5653 18.128 66.7653 17.32 66.7653 16.424C66.7653 15.528 66.5653 14.728 66.1653 14.024C65.7813 13.32 65.2533 12.768 64.5813 12.368C63.9093 11.952 63.1413 11.744 62.2773 11.744C61.4453 11.744 60.6853 11.952 59.9973 12.368C59.3093 12.768 58.7653 13.32 58.3653 14.024C57.9813 14.728 57.7893 15.528 57.7893 16.424C57.7893 17.32 57.9813 18.128 58.3653 18.848C58.7653 19.552 59.3093 20.112 59.9973 20.528C60.6853 20.928 61.4453 21.128 62.2773 21.128ZM77.6872 23C76.8712 23 76.1352 22.8 75.4792 22.4C74.8232 21.984 74.3112 21.432 73.9432 20.744C73.5752 20.04 73.3912 19.24 73.3912 18.344V6.8C73.3912 6.48 73.4872 6.216 73.6792 6.008C73.8872 5.8 74.1512 5.696 74.4712 5.696C74.7912 5.696 75.0552 5.8 75.2632 6.008C75.4712 6.216 75.5752 6.48 75.5752 6.8V18.344C75.5752 19.064 75.7752 19.656 76.1752 20.12C76.5752 20.584 77.0792 20.816 77.6872 20.816H78.4312C78.7032 20.816 78.9272 20.92 79.1032 21.128C79.2952 21.336 79.3912 21.6 79.3912 21.92C79.3912 22.24 79.2712 22.504 79.0312 22.712C78.8072 22.904 78.5112 23 78.1432 23H77.6872ZM72.0952 12.248C71.8072 12.248 71.5672 12.16 71.3752 11.984C71.1832 11.808 71.0872 11.584 71.0872 11.312C71.0872 11.024 71.1832 10.792 71.3752 10.616C71.5672 10.44 71.8072 10.352 72.0952 10.352H77.8792C78.1672 10.352 78.4072 10.44 78.5992 10.616C78.7912 10.792 78.8872 11.024 78.8872 11.312C78.8872 11.584 78.7912 11.808 78.5992 11.984C78.4072 12.16 78.1672 12.248 77.8792 12.248H72.0952ZM88.544 23.096C87.296 23.096 86.168 22.808 85.16 22.232C84.168 21.656 83.384 20.864 82.808 19.856C82.232 18.848 81.936 17.72 81.92 16.472V5.36C81.92 5.024 82.024 4.76 82.232 4.568C82.44 4.36 82.704 4.256 83.024 4.256C83.36 4.256 83.624 4.36 83.816 4.568C84.024 4.76 84.128 5.024 84.128 5.36V12.08C84.688 11.376 85.376 10.816 86.192 10.4C87.008 9.984 87.92 9.776 88.928 9.776C90.112 9.776 91.176 10.072 92.12 10.664C93.064 11.24 93.808 12.032 94.352 13.04C94.912 14.032 95.192 15.16 95.192 16.424C95.192 17.688 94.896 18.824 94.304 19.832C93.728 20.84 92.936 21.64 91.928 22.232C90.936 22.808 89.808 23.096 88.544 23.096ZM88.544 21.128C89.392 21.128 90.152 20.928 90.824 20.528C91.512 20.112 92.048 19.552 92.432 18.848C92.832 18.128 93.032 17.32 93.032 16.424C93.032 15.528 92.832 14.728 92.432 14.024C92.048 13.32 91.512 12.768 90.824 12.368C90.152 11.952 89.392 11.744 88.544 11.744C87.696 11.744 86.928 11.952 86.24 12.368C85.568 12.768 85.04 13.32 84.656 14.024C84.272 14.728 84.08 15.528 84.08 16.424C84.08 17.32 84.272 18.128 84.656 18.848C85.04 19.552 85.568 20.112 86.24 20.528C86.928 20.928 87.696 21.128 88.544 21.128ZM104.314 23.096C103.034 23.096 101.89 22.816 100.882 22.256C99.8899 21.68 99.1059 20.896 98.5299 19.904C97.9699 18.896 97.6899 17.744 97.6899 16.448C97.6899 15.136 97.9699 13.984 98.5299 12.992C99.1059 11.984 99.8899 11.2 100.882 10.64C101.89 10.064 103.034 9.776 104.314 9.776C105.594 9.776 106.73 10.064 107.722 10.64C108.73 11.2 109.514 11.984 110.074 12.992C110.65 13.984 110.946 15.136 110.962 16.448C110.962 17.744 110.674 18.896 110.098 19.904C109.522 20.896 108.738 21.68 107.746 22.256C106.754 22.816 105.61 23.096 104.314 23.096ZM104.314 21.128C105.194 21.128 105.97 20.928 106.642 20.528C107.314 20.128 107.842 19.576 108.226 18.872C108.61 18.168 108.802 17.36 108.802 16.448C108.802 15.536 108.61 14.728 108.226 14.024C107.842 13.304 107.314 12.744 106.642 12.344C105.97 11.944 105.194 11.744 104.314 11.744C103.45 11.744 102.674 11.944 101.986 12.344C101.314 12.744 100.786 13.304 100.402 14.024C100.018 14.728 99.8259 15.536 99.8259 16.448C99.8259 17.36 100.018 18.168 100.402 18.872C100.786 19.576 101.314 20.128 101.986 20.528C102.674 20.928 103.45 21.128 104.314 21.128ZM119.021 23C118.205 23 117.469 22.8 116.813 22.4C116.157 21.984 115.645 21.432 115.277 20.744C114.909 20.04 114.725 19.24 114.725 18.344V6.8C114.725 6.48 114.821 6.216 115.013 6.008C115.221 5.8 115.485 5.696 115.805 5.696C116.125 5.696 116.389 5.8 116.597 6.008C116.805 6.216 116.909 6.48 116.909 6.8V18.344C116.909 19.064 117.109 19.656 117.509 20.12C117.909 20.584 118.413 20.816 119.021 20.816H119.765C120.037 20.816 120.261 20.92 120.437 21.128C120.629 21.336 120.725 21.6 120.725 21.92C120.725 22.24 120.605 22.504 120.365 22.712C120.141 22.904 119.845 23 119.477 23H119.021ZM113.429 12.248C113.141 12.248 112.901 12.16 112.709 11.984C112.517 11.808 112.421 11.584 112.421 11.312C112.421 11.024 112.517 10.792 112.709 10.616C112.901 10.44 113.141 10.352 113.429 10.352H119.213C119.501 10.352 119.741 10.44 119.933 10.616C120.125 10.792 120.221 11.024 120.221 11.312C120.221 11.584 120.125 11.808 119.933 11.984C119.741 12.16 119.501 12.248 119.213 12.248H113.429Z" fill="#6F91EE"/>
<path d="M15 2.9407C15 1.79036 15.9376 0.842101 17.0755 1.01092C19.2043 1.32676 21.2426 2.12588 23.0292 3.35814C25.3902 4.98645 27.2003 7.29412 28.2193 9.97498C29.2384 12.6558 29.4183 15.5832 28.7351 18.3687C28.0519 21.1541 26.538 23.666 24.3942 25.5712C22.2503 27.4763 19.5779 28.6846 16.7315 29.0357C13.8851 29.3868 10.9991 28.8642 8.45658 27.5372C5.91403 26.2102 3.83504 24.1415 2.49542 21.6056C1.48164 19.6865 0.927562 17.5684 0.864055 15.4172C0.830109 14.2674 1.88196 13.4478 3.02434 13.583C4.16671 13.7181 4.96041 14.7611 5.06497 15.9066C5.18413 17.2123 5.56012 18.4885 6.17884 19.6598C7.12385 21.4487 8.59045 22.9081 10.3841 23.8442C12.1777 24.7803 14.2135 25.149 16.2215 24.9013C18.2295 24.6536 20.1147 23.8012 21.627 22.4573C23.1393 21.1133 24.2073 19.3413 24.6892 17.3764C25.1712 15.4114 25.0443 13.3463 24.3254 11.4552C23.6065 9.56399 22.3296 7.93608 20.6641 6.7874C19.5737 6.03534 18.3504 5.51199 17.0679 5.24024C15.9425 5.0018 15 4.09105 15 2.9407Z" fill="#F4C967"/>
<path d="M27.056 15.0002C28.2081 15.0002 29.1579 14.0612 28.9886 12.9215C28.6951 10.9462 27.9852 9.04735 26.897 7.35419C25.4312 5.07341 23.3407 3.26205 20.8745 2.13586C18.4083 1.00968 15.6703 0.616133 12.9867 1.00211C10.3031 1.38809 7.78707 2.53731 5.73821 4.3129C3.68934 6.08849 2.19405 8.41559 1.43044 11.017C0.666821 13.6185 0.667074 16.3846 1.43116 18.9859C2.19525 21.5871 3.69097 23.914 5.74016 25.6892C7.2614 27.007 9.04007 27.9797 10.9535 28.5511C12.0575 28.8807 13.1221 28.0741 13.2859 26.9336C13.4497 25.7931 12.645 24.756 11.5634 24.3589C10.4365 23.945 9.38815 23.3291 8.47216 22.5355C7.02756 21.2841 5.97313 19.6438 5.43447 17.8099C4.89582 15.9761 4.89564 14.0261 5.43396 12.1922C5.97228 10.3583 7.02641 8.71777 8.47078 7.46604C9.91516 6.21432 11.6889 5.40415 13.5807 5.13205C15.4725 4.85995 17.4027 5.13739 19.1413 5.93131C20.8799 6.72523 22.3536 8.00217 23.387 9.61004C24.0422 10.6295 24.5029 11.7548 24.7523 12.9291C24.9916 14.0562 25.9038 15.0002 27.056 15.0002Z" fill="#6F91EE"/>
<path d="M23.9578 21.9376C23.9578 19.706 25.7668 17.897 27.9984 17.897V27.3251C27.9984 28.4408 27.0939 29.3454 25.9781 29.3454C24.8623 29.3454 23.9578 28.4408 23.9578 27.3251V21.9376Z" fill="#F4C967"/>
</svg>
