<svg width="35" height="35" viewBox="0 0 35 35" fill="none" xmlns="http://www.w3.org/2000/svg">
<path d="M14.1994 5.67217C13.9017 4.56103 14.5618 3.40243 15.7046 3.27099C17.8427 3.02509 20.0183 3.26943 22.063 3.99727C24.765 4.95905 27.1107 6.7196 28.7889 9.04536C30.4671 11.3711 31.3985 14.1522 31.4595 17.0195C31.5205 19.8869 30.7083 22.7051 29.1306 25.1001C27.5529 27.4952 25.2843 29.354 22.6257 30.4299C19.9672 31.5058 17.0443 31.7479 14.2449 31.1242C11.4456 30.5004 8.902 29.0403 6.95168 26.9375C5.47574 25.3462 4.39235 23.4437 3.77424 21.3822C3.44385 20.2804 4.24773 19.2164 5.38616 19.0513C6.5246 18.8862 7.56118 19.6882 7.95868 20.7677C8.41169 21.998 9.1052 23.1335 10.006 24.1047C11.3818 25.5881 13.1761 26.6181 15.1509 27.0581C17.1257 27.4981 19.1876 27.3273 21.063 26.5683C22.9385 25.8093 24.5388 24.4981 25.6518 22.8085C26.7648 21.119 27.3377 19.1309 27.2947 17.1082C27.2516 15.0855 26.5946 13.1236 25.4107 11.4829C24.2268 9.84225 22.5721 8.6003 20.6661 7.92183C19.4181 7.47762 18.1011 7.2887 16.7919 7.35816C15.6432 7.41911 14.4971 6.78332 14.1994 5.67217Z" fill="#F4C967"/>
<path d="M29.3765 17.3206C30.5287 17.3206 31.4785 16.3815 31.3091 15.2419C31.0156 13.2666 30.3058 11.3677 29.2176 9.67456C27.7518 7.39379 25.6613 5.58242 23.195 4.45624C20.7288 3.33005 17.9908 2.93651 15.3073 3.32248C12.6237 3.70846 10.1076 4.85769 8.05876 6.63327C6.0099 8.40886 4.51461 10.736 3.75099 13.3374C2.98738 15.9388 2.98763 18.7049 3.75172 21.3062C4.51581 23.9075 6.01153 26.2343 8.06072 28.0096C9.58196 29.3274 11.3606 30.3 13.2741 30.8714C14.3781 31.2011 15.4426 30.3945 15.6065 29.254C15.7703 28.1135 14.9655 27.0764 13.884 26.6792C12.7571 26.2654 11.7087 25.6494 10.7927 24.8559C9.34812 23.6045 8.29369 21.9641 7.75503 20.1303C7.21638 18.2965 7.2162 16.3465 7.75452 14.5126C8.29284 12.6787 9.34697 11.0381 10.7913 9.78642C12.2357 8.53469 14.0095 7.72453 15.9013 7.45243C17.7931 7.18033 19.7233 7.45776 21.4619 8.25168C23.2005 9.0456 24.6742 10.3225 25.7076 11.9304C26.3628 12.9499 26.8234 14.0752 27.0728 15.2495C27.3122 16.3766 28.2243 17.3206 29.3765 17.3206Z" fill="#6F91EE"/>
<path d="M26.2783 24.258C26.2783 22.0264 28.0874 20.2173 30.3189 20.2173V29.6454C30.3189 30.7612 29.4144 31.6657 28.2986 31.6657C27.1828 31.6657 26.2783 30.7612 26.2783 29.6454V24.258Z" fill="#F4C967"/>
</svg>
