<svg width="14" height="14" viewBox="0 0 14 14" fill="none" xmlns="http://www.w3.org/2000/svg">
<path d="M7.125 14C5.76525 14 4.43604 13.5968 3.30546 12.8414C2.17487 12.0859 1.29368 11.0122 0.773331 9.75595C0.252979 8.49971 0.116831 7.11737 0.382104 5.78376C0.647378 4.45014 1.30216 3.22513 2.26364 2.26364C3.22513 1.30216 4.45014 0.647378 5.78376 0.382104C7.11737 0.116831 8.49971 0.252979 9.75595 0.773331C11.0122 1.29368 12.0859 2.17487 12.8414 3.30546C13.5968 4.43604 14 5.76525 14 7.125C13.9985 8.9479 13.2737 10.6957 11.9847 11.9847C10.6957 13.2737 8.9479 13.9985 7.125 14ZM7.125 1.20931C5.95499 1.20931 4.81125 1.55625 3.83842 2.20628C2.86559 2.8563 2.10736 3.78021 1.65961 4.86116C1.21187 5.94211 1.09472 7.13156 1.32297 8.2791C1.55123 9.42663 2.11465 10.4807 2.94197 11.308C3.7693 12.1354 4.82337 12.6988 5.97091 12.927C7.11844 13.1553 8.30789 13.0381 9.38884 12.5904C10.4698 12.1426 11.3937 11.3844 12.0437 10.4116C12.6937 9.43876 13.0407 8.29502 13.0407 7.125C13.0388 5.55663 12.415 4.05303 11.306 2.94403C10.197 1.83502 8.69337 1.21117 7.125 1.20931Z" fill="#292D32"/>
<path d="M5.3151 9.4139C5.25209 9.41412 5.18966 9.4018 5.13147 9.37764C5.07327 9.35348 5.02047 9.31798 4.97614 9.2732C4.88694 9.18293 4.83691 9.06115 4.83691 8.93424C4.83691 8.80734 4.88694 8.68555 4.97614 8.59529L8.59655 4.97616C8.64046 4.92904 8.69341 4.89124 8.75225 4.86502C8.81109 4.83881 8.8746 4.82471 8.939 4.82358C9.00341 4.82244 9.06738 4.83429 9.1271 4.85841C9.18683 4.88253 9.24108 4.91844 9.28663 4.96399C9.33218 5.00953 9.36808 5.06379 9.39221 5.12351C9.41633 5.18324 9.42818 5.24721 9.42704 5.31161C9.42591 5.37602 9.41181 5.43953 9.38559 5.49837C9.35938 5.55721 9.32158 5.61016 9.27445 5.65407L5.65469 9.27384C5.61061 9.31908 5.55775 9.35485 5.49935 9.37893C5.44096 9.40302 5.37826 9.41491 5.3151 9.4139Z" fill="#292D32"/>
<path d="M8.93487 9.41389C8.87186 9.41412 8.80943 9.40179 8.75124 9.37764C8.69304 9.35348 8.64024 9.31797 8.59591 9.27319L4.97678 5.65343C4.8951 5.56205 4.8515 5.44286 4.85492 5.32034C4.85835 5.19782 4.90855 5.08127 4.99522 4.9946C5.08189 4.90793 5.19845 4.85773 5.32097 4.8543C5.44349 4.85087 5.56267 4.89447 5.65405 4.97616L9.27382 8.59593C9.36302 8.68619 9.41305 8.80798 9.41305 8.93488C9.41305 9.06178 9.36302 9.18357 9.27382 9.27383C9.22944 9.3185 9.17661 9.35388 9.11842 9.37793C9.06023 9.40198 8.99783 9.4142 8.93487 9.41389Z" fill="#292D32"/>
</svg>
