<svg width="12" height="15" viewBox="0 0 12 15" fill="none" xmlns="http://www.w3.org/2000/svg">
<path d="M11.5448 4.35592H11.4956C8.26651 3.98908 5.00871 3.94785 1.77137 4.23283L0.515836 4.35592C0.454568 4.36264 0.392575 4.3571 0.333468 4.33963C0.27436 4.32216 0.219319 4.2931 0.17155 4.25415C0.12378 4.2152 0.0842365 4.16714 0.0552215 4.11276C0.0262066 4.05838 0.00830002 3.99878 0.00254456 3.93741C-0.00383133 3.87714 0.00180372 3.81621 0.0191239 3.75813C0.036444 3.70005 0.0651056 3.64599 0.103451 3.59906C0.141797 3.55213 0.189066 3.51326 0.242525 3.48472C0.295984 3.45617 0.354572 3.4385 0.414901 3.43273L1.67043 3.30964C4.97134 3.02165 8.29271 3.06289 11.5855 3.43273C11.7069 3.44533 11.8185 3.50547 11.8957 3.60003C11.973 3.69459 12.0097 3.81588 11.9978 3.93741C11.9884 4.05121 11.9367 4.15735 11.8528 4.23484C11.7689 4.31233 11.659 4.35554 11.5448 4.35592Z" fill="#EF4444"/>
<path d="M3.85164 3.73431C3.82483 3.7351 3.79801 3.73304 3.77163 3.72816C3.65222 3.70664 3.54601 3.63915 3.47582 3.54018C3.40562 3.44122 3.37704 3.31867 3.3962 3.19886L3.5316 2.39261C3.63007 1.80177 3.76547 0.983215 5.19949 0.983215H6.81199C8.25216 0.983215 8.38756 1.83255 8.47988 2.39877L8.61528 3.19886C8.62771 3.25923 8.62786 3.32148 8.61571 3.3819C8.60357 3.44232 8.57939 3.49968 8.54461 3.55056C8.50983 3.60144 8.46516 3.6448 8.41327 3.67804C8.36137 3.71129 8.30332 3.73375 8.24256 3.74408C8.1818 3.75442 8.11958 3.75241 8.05962 3.73819C7.99965 3.72396 7.94316 3.69781 7.89351 3.66129C7.84387 3.62477 7.80208 3.57863 7.77065 3.52562C7.73922 3.4726 7.71878 3.41381 7.71056 3.35273L7.57454 2.55263C7.48838 2.01718 7.46991 1.91256 6.81753 1.91256H5.20564C4.55326 1.91256 4.54095 1.99872 4.44863 2.54648L4.30708 3.34657C4.28954 3.45474 4.2341 3.55315 4.15066 3.62419C4.06722 3.69523 3.96122 3.73426 3.85164 3.73431Z" fill="#EF4444"/>
<path d="M7.98157 14.2156H4.03033C1.88239 14.2156 1.79622 13.0277 1.72852 12.0676L1.32724 5.86933C1.31996 5.74712 1.36107 5.62695 1.44169 5.53481C1.52231 5.44267 1.63596 5.38597 1.75806 5.37697C1.88024 5.36984 2.00032 5.41101 2.09242 5.4916C2.18453 5.57219 2.24127 5.68575 2.25043 5.80779L2.65048 12.0054C2.71818 12.9409 2.74279 13.2917 4.0291 13.2917H7.98034C9.2728 13.2917 9.29742 12.9409 9.35896 12.0054L9.75901 5.80779C9.76908 5.6861 9.82609 5.57311 9.91798 5.49271C10.0099 5.4123 10.1294 5.3708 10.2514 5.37697C10.312 5.38096 10.3713 5.39686 10.4257 5.42377C10.4802 5.45069 10.5289 5.48808 10.5689 5.53381C10.6089 5.57954 10.6395 5.63272 10.6589 5.69029C10.6784 5.74786 10.6863 5.8087 10.6822 5.86933L10.2821 12.067C10.2157 13.0277 10.1283 14.2156 7.98157 14.2156Z" fill="#EF4444"/>
<path d="M7.02742 10.8305H4.97795C4.85578 10.8297 4.73884 10.7808 4.65245 10.6944C4.56605 10.6081 4.51716 10.4911 4.51636 10.3689C4.51716 10.2468 4.56605 10.1298 4.65245 10.0434C4.73884 9.95705 4.85578 9.90816 4.97795 9.90735H7.02742C7.1496 9.90816 7.26654 9.95705 7.35293 10.0434C7.43932 10.1298 7.48821 10.2468 7.48902 10.3689C7.48821 10.4911 7.43932 10.6081 7.35293 10.6944C7.26654 10.7808 7.1496 10.8297 7.02742 10.8305Z" fill="#EF4444"/>
<path d="M7.54425 8.36871H4.46696C4.34479 8.36791 4.22785 8.31901 4.14146 8.23262C4.05507 8.14623 4.00618 8.02929 4.00537 7.90712C4.00618 7.78495 4.05507 7.66801 4.14146 7.58161C4.22785 7.49522 4.34479 7.44633 4.46696 7.44553H7.54425C7.66642 7.44633 7.78336 7.49522 7.86976 7.58161C7.95615 7.66801 8.00504 7.78495 8.00584 7.90712C8.00504 8.02929 7.95615 8.14623 7.86976 8.23262C7.78336 8.31901 7.66642 8.36791 7.54425 8.36871Z" fill="#EF4444"/>
</svg>
