<svg width="38" height="38" viewBox="0 0 38 38" fill="none" xmlns="http://www.w3.org/2000/svg">
<rect width="38" height="38" rx="19" fill="#F4C967"/>
<path d="M23.7645 13.8477C23.5753 13.8193 23.3842 13.8066 23.193 13.8096H15.5728C15.3662 13.8091 15.1598 13.8243 14.9556 13.8553C15.0701 13.6348 15.2193 13.4341 15.3975 13.2609L17.8741 10.7767C18.377 10.2788 19.0562 9.99951 19.7639 9.99951C20.4716 9.99951 21.1507 10.2788 21.6537 10.7767L22.9872 12.1255C23.4555 12.5801 23.7334 13.1958 23.7645 13.8477V13.8477Z" stroke="white" stroke-width="1.5" stroke-linecap="round" stroke-linejoin="round"/>
<path d="M17.0961 22.9538C17.0972 23.5079 16.9442 24.0514 16.6542 24.5236C16.3846 24.9742 16.0029 25.3473 15.5461 25.6063C15.0893 25.8654 14.5732 26.0015 14.0481 26.0015C13.523 26.0015 13.0068 25.8654 12.5501 25.6063C12.0933 25.3473 11.7115 24.9742 11.442 24.5236C11.1519 24.0514 10.9989 23.5079 11 22.9538C11 22.1454 11.3211 21.3701 11.8928 20.7985C12.4644 20.2269 13.2397 19.9057 14.0481 19.9057C14.8565 19.9057 15.6318 20.2269 16.2034 20.7985C16.775 21.3701 17.0961 22.1454 17.0961 22.9538V22.9538Z" stroke="white" stroke-width="1.5" stroke-linecap="round" stroke-linejoin="round"/>
<path d="M15.1849 22.9378H12.9141" stroke="white" stroke-width="1.5" stroke-linecap="round" stroke-linejoin="round"/>
<path d="M14.0481 21.826V24.1044" stroke="white" stroke-width="1.5" stroke-linecap="round" stroke-linejoin="round"/>
<path d="M27.0023 17.6197V21.4298C27.033 21.9381 26.9554 22.4472 26.7748 22.9234C26.5942 23.3995 26.3146 23.8319 25.9545 24.192C25.5944 24.5522 25.1619 24.8318 24.6858 25.0124C24.2096 25.193 23.7005 25.2705 23.1922 25.2399H16.0521C16.2924 25.0374 16.496 24.7951 16.6541 24.5236C16.9441 24.0514 17.0971 23.5079 17.0961 22.9538C17.0952 22.3351 16.906 21.7312 16.5537 21.2226C16.2013 20.7139 15.7025 20.3246 15.1236 20.1062C14.5446 19.8879 13.913 19.8509 13.3125 20.0002C12.712 20.1495 12.1712 20.478 11.7619 20.9421V17.6197C11.7009 16.7004 12.0001 15.7935 12.596 15.0909C13.1919 14.3883 14.0379 13.9452 14.9548 13.8553C15.1591 13.8244 15.3654 13.8091 15.572 13.8096H23.1922C23.3834 13.8066 23.5746 13.8193 23.7637 13.8477C24.6895 13.9282 25.5469 14.3681 26.1523 15.0732C26.7576 15.7783 27.0628 16.6924 27.0023 17.6197Z" stroke="white" stroke-width="1.5" stroke-linecap="round" stroke-linejoin="round"/>
<path d="M27.0025 18.0007H24.7164C24.3122 18.0007 23.9246 18.1613 23.6388 18.4471C23.353 18.7329 23.1924 19.1205 23.1924 19.5247C23.1924 19.9289 23.353 20.3166 23.6388 20.6024C23.9246 20.8882 24.3122 21.0488 24.7164 21.0488H27.0025" stroke="white" stroke-width="1.5" stroke-linecap="round" stroke-linejoin="round"/>
</svg>
