<svg width="38" height="38" viewBox="0 0 38 38" fill="none" xmlns="http://www.w3.org/2000/svg">
<rect width="38" height="38" rx="19" fill="#F4C967"/>
<path d="M23.8641 18.049C23.7049 18.048 23.5525 17.9843 23.4399 17.8717C23.3273 17.7591 23.2636 17.6067 23.2626 17.4475V15.8433C23.2626 13.3168 22.5487 11.6325 19.0517 11.6325C15.5546 11.6325 14.8408 13.3168 14.8408 15.8433V17.4475C14.8398 17.6067 14.776 17.7591 14.6635 17.8717C14.5509 17.9843 14.3985 18.048 14.2392 18.049C14.08 18.048 13.9276 17.9843 13.815 17.8717C13.7025 17.7591 13.6387 17.6067 13.6377 17.4475V15.8433C13.6377 13.5173 14.1991 10.4293 19.0517 10.4293C23.9042 10.4293 24.4657 13.5173 24.4657 15.8433V17.4475C24.4646 17.6067 24.4009 17.7591 24.2883 17.8717C24.1757 17.9843 24.0233 18.048 23.8641 18.049Z" fill="white"/>
<path d="M19.0516 24.8667C18.536 24.8667 18.032 24.7138 17.6033 24.4273C17.1747 24.1409 16.8405 23.7338 16.6433 23.2575C16.446 22.7812 16.3943 22.257 16.4949 21.7514C16.5955 21.2457 16.8438 20.7812 17.2083 20.4167C17.5729 20.0521 18.0374 19.8039 18.543 19.7033C19.0487 19.6027 19.5728 19.6543 20.0491 19.8516C20.5254 20.0489 20.9326 20.383 21.219 20.8117C21.5054 21.2404 21.6583 21.7444 21.6583 22.2599C21.657 22.9509 21.382 23.6132 20.8934 24.1018C20.4048 24.5903 19.7425 24.8654 19.0516 24.8667ZM19.0516 20.8563C18.774 20.8563 18.5026 20.9386 18.2717 21.0928C18.0409 21.2471 17.861 21.4663 17.7548 21.7228C17.6485 21.9793 17.6207 22.2615 17.6749 22.5338C17.7291 22.806 17.8627 23.0561 18.059 23.2524C18.2553 23.4487 18.5055 23.5824 18.7777 23.6366C19.05 23.6907 19.3322 23.6629 19.5887 23.5567C19.8452 23.4505 20.0644 23.2706 20.2186 23.0397C20.3729 22.8089 20.4552 22.5375 20.4552 22.2599C20.4535 21.8882 20.3051 21.5321 20.0422 21.2693C19.7793 21.0064 19.4233 20.858 19.0516 20.8563Z" fill="white"/>
<path d="M23.0621 27.6739H15.0414C11.5042 27.6739 10.4294 26.5991 10.4294 23.062V21.4579C10.4294 17.9207 11.5042 16.8459 15.0414 16.8459H23.0621C26.5992 16.8459 27.674 17.9207 27.674 21.4579V23.062C27.674 26.5991 26.5992 27.6739 23.0621 27.6739ZM15.0414 18.049C12.1699 18.049 11.6326 18.5945 11.6326 21.4579V23.062C11.6326 25.9254 12.1699 26.4708 15.0414 26.4708H23.0621C25.9335 26.4708 26.4709 25.9254 26.4709 23.062V21.4579C26.4709 18.5945 25.9335 18.049 23.0621 18.049H15.0414Z" fill="white"/>
</svg>
