<svg width="38" height="38" viewBox="0 0 38 38" fill="none" xmlns="http://www.w3.org/2000/svg">
<rect width="38" height="38" rx="19" fill="#F4C967"/>
<path d="M16.3376 20.864C16.3314 21.1031 16.3725 21.3411 16.4585 21.5643C16.5445 21.7875 16.6737 21.9915 16.8386 22.1647C17.0036 22.3379 17.2012 22.4768 17.42 22.5734C17.6387 22.6701 17.8745 22.7226 18.1136 22.728H20.1216C20.5426 22.718 20.9424 22.5413 21.2333 22.2369C21.5243 21.9324 21.6826 21.525 21.6736 21.104C21.7189 20.7617 21.6362 20.4148 21.4413 20.1298C21.2464 19.8448 20.953 19.6419 20.6176 19.56L17.3936 18.44C17.0581 18.3582 16.7648 18.1553 16.5699 17.8703C16.3749 17.5853 16.2922 17.2383 16.3376 16.896C16.3286 16.475 16.4869 16.0676 16.7778 15.7632C17.0688 15.4587 17.4686 15.2821 17.8896 15.272H19.8976C20.1367 15.2774 20.3724 15.33 20.5912 15.4266C20.81 15.5233 21.0075 15.6622 21.1725 15.8354C21.3375 16.0085 21.4667 16.2126 21.5527 16.4358C21.6387 16.6589 21.6797 16.8969 21.6736 17.136" stroke="white" stroke-width="1.5" stroke-linecap="round" stroke-linejoin="round"/>
<path d="M19 14.2V23.8" stroke="white" stroke-width="1.5" stroke-linecap="round" stroke-linejoin="round"/>
<path d="M27 19C27 20.5823 26.5308 22.129 25.6518 23.4446C24.7727 24.7602 23.5233 25.7855 22.0615 26.391C20.5997 26.9965 18.9911 27.155 17.4393 26.8463C15.8874 26.5376 14.462 25.7757 13.3431 24.6569C12.2243 23.538 11.4624 22.1126 11.1537 20.5607C10.845 19.0089 11.0035 17.4003 11.609 15.9385C12.2145 14.4767 13.2398 13.2273 14.5554 12.3482C15.871 11.4692 17.4178 11 19 11C21.1217 11 23.1566 11.8429 24.6569 13.3431C26.1571 14.8434 27 16.8783 27 19Z" stroke="white" stroke-width="1.5" stroke-linecap="round" stroke-linejoin="round"/>
</svg>
