<svg width="38" height="38" viewBox="0 0 38 38" fill="none" xmlns="http://www.w3.org/2000/svg">
<rect width="38" height="38" rx="19" fill="#F4C967"/>
<path d="M27.0987 18.4959L26.2968 21.9163C25.6095 24.8702 24.2512 26.0649 21.6981 25.8194C21.2512 25.7805 20.808 25.7066 20.3725 25.5985L18.9978 25.2712C15.5856 24.4611 14.5301 22.7755 15.332 19.3551L16.1339 15.9265C16.2684 15.3059 16.4715 14.7021 16.7394 14.1263C17.696 12.1461 19.3252 11.6142 22.0582 12.2607L23.4247 12.5798C26.8533 13.3817 27.9006 15.0755 27.0987 18.4959Z" stroke="white" stroke-width="1.5" stroke-linecap="round" stroke-linejoin="round"/>
<path d="M21.6981 25.8194C21.101 26.2015 20.4539 26.4989 19.7752 26.7032L18.4823 27.1287C15.2338 28.1761 13.5236 27.3005 12.468 24.052L11.4206 20.8198C10.3732 17.5713 11.2406 15.8529 14.4891 14.8055L15.782 14.38C16.0958 14.2766 16.4155 14.1919 16.7394 14.1263C16.4715 14.7021 16.2684 15.3059 16.1339 15.9265L15.3319 19.3551C14.53 22.7755 15.5856 24.4611 18.9978 25.2712L20.3725 25.5985C20.8079 25.7066 21.2512 25.7805 21.6981 25.8194Z" stroke="white" stroke-width="1.5" stroke-linecap="round" stroke-linejoin="round"/>
<path d="M19.718 16.933L23.6866 17.9395" stroke="white" stroke-width="1.5" stroke-linecap="round" stroke-linejoin="round"/>
<path d="M18.916 20.0997L21.289 20.7052" stroke="white" stroke-width="1.5" stroke-linecap="round" stroke-linejoin="round"/>
</svg>
