<svg width="16" height="13" viewBox="0 0 16 13" fill="none" xmlns="http://www.w3.org/2000/svg">
<path fill-rule="evenodd" clip-rule="evenodd" d="M0.6876 6.95308C0.498116 6.89614 0.365115 6.72626 0.355314 6.52884C0.345513 6.33189 0.461248 6.1494 0.643732 6.07426C3.75436 4.79361 11.9358 1.42489 14.5093 0.364988C14.667 0.300116 14.8471 0.32625 14.9802 0.433126C15.1127 0.540003 15.1766 0.71082 15.1468 0.878836C14.7165 3.28846 13.4806 10.2075 13.0858 12.4201C13.0582 12.5737 12.956 12.7034 12.8128 12.7655C12.67 12.828 12.5052 12.815 12.3736 12.7305C11.0897 11.9049 8.05839 9.95636 6.89488 9.20822C6.77866 9.13355 6.70163 9.01221 6.68437 8.87546C6.66663 8.73918 6.71005 8.6015 6.80292 8.50022C7.98557 7.21024 11.5624 3.30807 11.5624 3.30807C11.5624 3.30807 5.41024 7.1533 4.27427 7.86316C4.16039 7.93457 4.02132 7.95324 3.8925 7.9145C3.34645 7.75069 1.80631 7.28864 0.6876 6.95308Z" fill="#6F91EE"/>
</svg>
