<svg width="30" height="30" viewBox="0 0 30 30" fill="none" xmlns="http://www.w3.org/2000/svg">
<path d="M15 30C23.2843 30 30 23.2843 30 15C30 6.71573 23.2843 0 15 0C6.71573 0 0 6.71573 0 15C0 23.2843 6.71573 30 15 30Z" fill="#72B7EF"/>
<path fill-rule="evenodd" clip-rule="evenodd" d="M6.68766 15.9531C6.49818 15.8961 6.36518 15.7263 6.35537 15.5288C6.34557 15.3319 6.46131 15.1494 6.64379 15.0743C9.75442 13.7936 17.9359 10.4249 20.5093 9.365C20.6671 9.30012 20.8472 9.32626 20.9802 9.43313C21.1128 9.54001 21.1767 9.71083 21.1468 9.87884C20.7165 12.2885 19.4807 19.2075 19.0858 21.4201C19.0583 21.5737 18.9561 21.7034 18.8128 21.7655C18.67 21.828 18.5052 21.815 18.3736 21.7305C17.0897 20.9049 14.0584 18.9564 12.8949 18.2082C12.7787 18.1336 12.7017 18.0122 12.6844 17.8755C12.6667 17.7392 12.7101 17.6015 12.803 17.5002C13.9856 16.2102 17.5625 12.3081 17.5625 12.3081C17.5625 12.3081 11.4103 16.1533 10.2743 16.8632C10.1605 16.9346 10.0214 16.9532 9.89257 16.9145C9.34651 16.7507 7.80637 16.2886 6.68766 15.9531Z" fill="#F9F6F9"/>
</svg>
