<svg width="76" height="76" viewBox="0 0 76 76" fill="none" xmlns="http://www.w3.org/2000/svg">
<circle cx="38" cy="38" r="37.5" stroke="#F4F4F4"/>
<circle cx="38" cy="38" r="27.5" stroke="#F4F4F4"/>
<path d="M38 57.5C48.7696 57.5 57.5 48.7696 57.5 38C57.5 27.2304 48.7696 18.5 38 18.5C27.2304 18.5 18.5 27.2304 18.5 38C18.5 48.7696 27.2304 57.5 38 57.5Z" fill="#72B7EF"/>
<path fill-rule="evenodd" clip-rule="evenodd" d="M27.1937 39.239C26.9474 39.165 26.7745 38.9441 26.7617 38.6875C26.749 38.4315 26.8995 38.1942 27.1367 38.0965C31.1805 36.4317 41.8164 32.0524 45.1619 30.6745C45.3669 30.5902 45.6011 30.6241 45.774 30.7631C45.9463 30.902 46.0295 31.1241 45.9906 31.3425C45.4312 34.475 43.8246 43.4697 43.3113 46.3462C43.2755 46.5458 43.1427 46.7145 42.9564 46.7952C42.7708 46.8765 42.5566 46.8595 42.3855 46.7496C40.7164 45.6764 36.7757 43.1433 35.2632 42.1707C35.1121 42.0736 35.012 41.9159 34.9895 41.7381C34.9664 41.5609 35.0229 41.382 35.1436 41.2503C36.6811 39.5733 41.331 34.5005 41.331 34.5005C41.331 34.5005 33.3331 39.4993 31.8564 40.4221C31.7083 40.515 31.5275 40.5392 31.3601 40.4889C30.6502 40.2759 28.648 39.6752 27.1937 39.239Z" fill="#F9F6F9"/>
</svg>
