<svg width="30" height="30" viewBox="0 0 30 30" fill="none" xmlns="http://www.w3.org/2000/svg">
<path d="M15 30C23.2843 30 30 23.2843 30 15C30 6.71573 23.2843 0 15 0C6.71573 0 0 6.71573 0 15C0 23.2843 6.71573 30 15 30Z" fill="#1D9BF0"/>
<path d="M12.3979 21C17.6811 21 20.5712 16.7669 20.5712 13.1024C20.5712 12.984 20.5712 12.8638 20.566 12.7454C21.1287 12.3515 21.6143 11.8638 22.0001 11.3053C21.4745 11.5294 20.9175 11.6771 20.3472 11.7436C20.948 11.3964 21.3979 10.8501 21.6134 10.2062C21.049 10.5295 20.4313 10.7565 19.7872 10.8772C19.3543 10.4313 18.7813 10.1359 18.1572 10.0368C17.533 9.93763 16.8925 10.0403 16.3348 10.3288C15.7771 10.6174 15.3333 11.0757 15.0723 11.6328C14.8112 12.1899 14.7474 12.8147 14.8907 13.4104C13.7486 13.355 12.6313 13.0681 11.6113 12.5683C10.5912 12.0685 9.69122 11.3669 8.96962 10.5091C8.60329 11.1209 8.4915 11.8446 8.65694 12.5332C8.82238 13.2218 9.25265 13.8238 9.86037 14.2167C9.40497 14.2018 8.95958 14.0835 8.56012 13.8715V13.9096C8.56091 14.5505 8.79052 15.1715 9.21014 15.6676C9.62976 16.1637 10.2137 16.5045 10.8631 16.6324C10.6166 16.6981 10.3619 16.7308 10.1062 16.7297C9.92598 16.7302 9.74608 16.7141 9.569 16.6815C9.75256 17.2332 10.11 17.7155 10.5912 18.061C11.0724 18.4065 11.6534 18.5978 12.2526 18.6081C11.2346 19.3812 9.9771 19.8006 8.68262 19.7985C8.45453 19.7995 8.22659 19.7867 8.00012 19.7605C9.31395 20.5704 10.8398 21.0005 12.3979 21Z" fill="#F9F6F9"/>
</svg>
