<svg width="17" height="16" viewBox="0 0 17 16" fill="none" xmlns="http://www.w3.org/2000/svg">
<circle cx="8.87189" cy="8" r="7.5" fill="white" stroke="#F4F4F4"/>
<path d="M7.7477 7.91957L9.60008 6H7.61583L6.08738 10.5833H4.81648C4.787 10.583 4.75804 10.5758 4.73189 10.5626C4.70575 10.5493 4.68317 10.5303 4.66596 10.5069C4.64875 10.4836 4.63738 10.4567 4.63278 10.4283C4.62818 10.4 4.63047 10.371 4.63947 10.3436L6.0865 6H4.39255L2.95879 10.3013C2.91299 10.4388 2.90121 10.5848 2.92443 10.7276C2.94765 10.8703 3.0052 11.0056 3.09238 11.1225C3.17955 11.2394 3.29389 11.3346 3.42603 11.4002C3.55817 11.4658 3.70437 11.5 3.85268 11.5H7.47511L8.75841 7.64965L7.7477 7.91957Z" fill="#0062DF"/>
<path d="M13.9333 6H10.0391L10.6197 7.91957L9.78866 7.65052L8.50005 11.5H10.194L10.8056 9.66667H12.6367C13.0339 9.6665 13.4209 9.54385 13.7422 9.3163C14.0634 9.08875 14.3026 8.76797 14.4253 8.39989L14.8263 7.19865C14.8718 7.06128 14.8835 6.91537 14.8602 6.77279C14.837 6.63022 14.7795 6.495 14.6924 6.37817C14.6054 6.26134 14.4913 6.16619 14.3593 6.10048C14.2274 6.03476 14.0814 6.00033 13.9333 6ZM13.1474 7.15553L12.827 8.11704C12.7655 8.30107 12.6458 8.46142 12.4851 8.57512C12.3244 8.68882 12.1308 8.75004 11.9322 8.75H11.1109L11.7225 6.91667H12.9695C12.999 6.91659 13.0282 6.92335 13.0546 6.93641C13.081 6.94946 13.1038 6.96843 13.1211 6.99176C13.1385 7.01508 13.1499 7.04209 13.1545 7.07057C13.1591 7.09904 13.1566 7.12816 13.1474 7.15553Z" fill="#0062DF"/>
</svg>
