<svg width="30" height="30" viewBox="0 0 30 30" fill="none" xmlns="http://www.w3.org/2000/svg">
<path d="M15 30C23.2843 30 30 23.2843 30 15C30 6.71573 23.2843 0 15 0C6.71573 0 0 6.71573 0 15C0 23.2843 6.71573 30 15 30Z" fill="#EF4444"/>
<path d="M15.0452 10H15.1231C15.8424 10.0027 19.487 10.0294 20.4697 10.2981C20.7667 10.3801 21.0374 10.5399 21.2547 10.7616C21.472 10.9834 21.6283 11.2592 21.7079 11.5615C21.7962 11.8996 21.8584 12.3472 21.9004 12.809L21.9091 12.9015L21.9284 13.1328L21.9354 13.2254C21.9922 14.0386 21.9992 14.8002 22.0001 14.9666V15.0334C21.9992 15.206 21.9914 16.0192 21.9284 16.8663L21.9214 16.9597L21.9135 17.0522C21.8697 17.5612 21.805 18.0666 21.7079 18.4385C21.6285 18.7409 21.4723 19.0169 21.255 19.2386C21.0377 19.4604 20.7668 19.6202 20.4697 19.7019C19.4546 19.9795 15.5965 19.9991 15.0618 20H14.9376C14.6672 20 13.5488 19.9947 12.3763 19.9537L12.2275 19.9484L12.1514 19.9448L12.0017 19.9386L11.8521 19.9324C10.8808 19.8888 9.95587 19.8185 9.52972 19.701C9.23263 19.6194 8.96186 19.4597 8.74455 19.2381C8.52724 19.0165 8.37101 18.7408 8.29152 18.4385C8.19438 18.0674 8.12963 17.5612 8.08588 17.0522L8.07888 16.9588L8.07188 16.8663C8.02869 16.2634 8.00476 15.6592 8.00012 15.0547L8.00012 14.9453C8.00187 14.754 8.00887 14.0929 8.05613 13.3633L8.06225 13.2716L8.06488 13.2254L8.07188 13.1328L8.09113 12.9015L8.09988 12.809C8.14188 12.3472 8.20401 11.8987 8.29239 11.5615C8.37175 11.2591 8.52792 10.9831 8.74524 10.7614C8.96256 10.5396 9.2334 10.3798 9.53059 10.2981C9.95674 10.1824 10.8817 10.1112 11.853 10.0667L12.0017 10.0605L12.1523 10.0552L12.2275 10.0525L12.3771 10.0463C13.2099 10.019 14.0431 10.0039 14.8763 10.0009H15.0452V10ZM13.6005 12.8561V17.143L17.2381 15.0004L13.6005 12.8561Z" fill="#F9F6F9"/>
</svg>
